<svg width="35" height="35" viewBox="0 0 35 35" fill="none" xmlns="http://www.w3.org/2000/svg"><path d="M17.314 33.407c8.903 0 16.117-7.228 16.117-16.141 0-8.914-7.214-16.142-16.117-16.142S1.196 8.352 1.196 17.266c0 8.913 7.215 16.141 16.118 16.141z" stroke="#fff" stroke-opacity=".8" stroke-width="2"/><path d="M17.314 32.283c8.349 0 15.117-6.751 15.117-15.08 0-8.328-6.768-15.08-15.117-15.08-8.35 0-15.118 6.752-15.118 15.08 0 8.329 6.769 15.08 15.118 15.08z" fill="#fff"/><path d="M17.314 2.124c-8.35 0-15.118 6.752-15.118 15.08 0 6.391 3.982 11.852 9.606 14.05-.137-1.192-.25-3.03.05-4.332.273-1.18 1.766-7.497 1.766-7.497s-.447-.906-.447-2.234c0-2.097 1.219-3.661 2.737-3.661 1.294 0 1.916.968 1.916 2.122 0 1.29-.821 3.227-1.257 5.027-.36 1.501.76 2.73 2.24 2.73 2.687 0 4.753-2.83 4.753-6.9 0-3.612-2.6-6.132-6.32-6.132-4.306 0-6.832 3.215-6.832 6.541 0 1.29.498 2.68 1.12 3.438a.448.448 0 0 1 .1.434c-.112.472-.374 1.502-.423 1.713-.063.273-.224.335-.51.199-1.892-.882-3.074-3.624-3.074-5.846 0-4.754 3.46-9.122 9.991-9.122 5.239 0 9.32 3.723 9.32 8.712 0 5.2-3.285 9.383-7.839 9.383-1.53 0-2.974-.794-3.459-1.737l-.946 3.587c-.336 1.315-1.256 2.954-1.878 3.959a15.22 15.22 0 0 0 4.479.67c8.349 0 15.117-6.752 15.117-15.08.025-8.352-6.743-15.104-15.092-15.104z" fill="#E60019"/></svg>