<svg width="35" height="35" viewBox="0 0 35 35" fill="none" xmlns="http://www.w3.org/2000/svg"><g clip-path="url(#clip0)"><path d="M32.807 17.265c0-8.363-6.768-15.142-15.118-15.142-8.35 0-15.117 6.779-15.117 15.142 0 7.56 5.527 13.823 12.755 14.959V21.642H11.49v-4.377h3.838V13.93c0-3.794 2.256-5.89 5.71-5.89 1.654 0 3.385.295 3.385.295v3.726h-1.908c-1.878 0-2.462 1.168-2.462 2.366v2.84h4.192l-.67 4.376h-3.522v10.582c7.228-1.136 12.755-7.4 12.755-14.959z" fill="#1877F2"/><path d="M23.574 21.642l.67-4.377h-4.192v-2.839c0-1.198.584-2.366 2.462-2.366h1.908V8.334s-1.73-.296-3.384-.296c-3.455 0-5.71 2.097-5.71 5.891v3.336h-3.839v4.377h3.838v10.582a15.352 15.352 0 0 0 4.725 0V21.642h3.522z" fill="#fff"/></g><path d="M17.69 33.407c8.902 0 16.117-7.228 16.117-16.142 0-8.913-7.215-16.142-16.118-16.142-8.902 0-16.117 7.229-16.117 16.142s7.215 16.142 16.117 16.142z" stroke="#fff" stroke-opacity=".8" stroke-width="2"/><defs><clipPath id="clip0"><path fill="#fff" transform="translate(2.572 2.123)" d="M0 0h30.235v30.284H0z"/></clipPath></defs></svg>