<svg width="30" height="32" viewBox="0 0 30 32" fill="none" xmlns="http://www.w3.org/2000/svg"><path fill-rule="evenodd" clip-rule="evenodd" d="M15 .633C6.716.633 0 7.439 0 15.835s6.716 15.202 15 15.202c8.284 0 15-6.806 15-15.202S23.284.633 15 .633zm-3.298 7.143c.853-.04 1.126-.049 3.299-.049h-.003c2.174 0 2.445.01 3.299.049.851.04 1.433.176 1.943.377.527.207.972.484 1.417.935.445.45.718.903.923 1.436.197.515.332 1.105.372 1.968.038.865.048 1.14.048 3.343 0 2.202-.01 2.477-.048 3.342-.04.863-.175 1.452-.372 1.968a3.986 3.986 0 0 1-.923 1.436 3.91 3.91 0 0 1-1.416.936c-.51.2-1.091.337-1.943.377-.854.039-1.125.049-3.298.049s-2.445-.01-3.299-.05c-.851-.039-1.433-.175-1.942-.376a3.913 3.913 0 0 1-1.416-.936 3.979 3.979 0 0 1-.923-1.436c-.198-.516-.332-1.105-.372-1.968C7.01 18.312 7 18.037 7 15.835s.01-2.479.048-3.343c.038-.863.173-1.453.372-1.968a3.98 3.98 0 0 1 .923-1.436 3.913 3.913 0 0 1 1.417-.935c.509-.2 1.09-.337 1.942-.377z" fill="#fff"/><path fill-rule="evenodd" clip-rule="evenodd" d="M14.283 9.188h.718c2.136 0 2.389.008 3.232.047.78.036 1.204.168 1.486.28.373.146.64.322.92.605.28.284.453.555.598.933.11.285.24.714.275 1.505.039.855.047 1.111.047 3.275 0 2.164-.008 2.42-.047 3.275-.035.79-.166 1.22-.275 1.505a2.511 2.511 0 0 1-.599.932 2.47 2.47 0 0 1-.92.606c-.28.112-.704.243-1.485.28-.843.038-1.096.047-3.232.047s-2.39-.009-3.233-.048c-.78-.036-1.203-.168-1.485-.28a2.474 2.474 0 0 1-.92-.605 2.516 2.516 0 0 1-.6-.932c-.109-.286-.24-.715-.275-1.505-.038-.855-.046-1.112-.046-3.277s.008-2.42.046-3.275c.036-.79.166-1.22.276-1.505.145-.379.319-.65.599-.933.28-.284.546-.46.92-.607.282-.111.705-.243 1.485-.28.738-.033 1.024-.043 2.515-.045v.002zm4.988 1.347c-.53 0-.96.435-.96.973 0 .537.43.973.96.973s.96-.436.96-.973a.967.967 0 0 0-.96-.973zm-8.379 5.3c0-2.299 1.84-4.163 4.109-4.163s4.107 1.864 4.107 4.164-1.838 4.163-4.107 4.163c-2.27 0-4.109-1.864-4.109-4.163z" fill="#fff"/><path d="M15 13.133c1.473 0 2.667 1.21 2.667 2.702s-1.194 2.702-2.666 2.702c-1.473 0-2.667-1.21-2.667-2.702 0-1.493 1.194-2.702 2.667-2.702z" fill="#fff"/></svg>