<svg width="36" height="35" viewBox="0 0 36 35" fill="none" xmlns="http://www.w3.org/2000/svg"><path d="M18.09 33.407c8.902 0 16.117-7.229 16.117-16.142 0-8.914-7.215-16.142-16.118-16.142-8.903 0-16.117 7.228-16.117 16.142 0 8.913 7.214 16.142 16.117 16.142z" stroke="#fff" stroke-opacity=".8" stroke-width="2"/><path d="M18.09 32.187c8.349 0 15.117-6.779 15.117-15.141 0-8.363-6.768-15.142-15.118-15.142-8.349 0-15.117 6.779-15.117 15.142 0 8.362 6.768 15.141 15.117 15.141z" fill="#25D366"/><path fill-rule="evenodd" clip-rule="evenodd" d="M18.588 25.47h-.004a8.97 8.97 0 0 1-4.295-1.096l-4.766 1.252L10.8 20.96a8.998 8.998 0 0 1-1.2-4.501c.002-4.964 4.034-9.003 8.989-9.003a8.924 8.924 0 0 1 6.359 2.64 8.956 8.956 0 0 1 2.63 6.37c-.002 4.963-4.033 9.002-8.989 9.004zm-4.078-2.727l.273.162a7.451 7.451 0 0 0 3.802 1.043h.003c4.118 0 7.47-3.357 7.472-7.483 0-2-.776-3.88-2.186-5.295a7.415 7.415 0 0 0-5.283-2.194c-4.12 0-7.473 3.356-7.474 7.483 0 1.414.394 2.79 1.142 3.982l.178.283-.755 2.762 2.828-.743zm8.3-4.339c.156.076.262.127.307.203.056.094.056.544-.131 1.07-.187.525-1.085 1.005-1.516 1.07a3.073 3.073 0 0 1-1.415-.09 12.876 12.876 0 0 1-1.28-.474c-2.106-.91-3.53-2.954-3.798-3.34l-.04-.057-.001-.002c-.12-.159-.916-1.223-.916-2.325 0-1.036.509-1.58.742-1.83a.617.617 0 0 0 .044-.047.825.825 0 0 1 .6-.281c.15 0 .3.001.43.008h.05c.131 0 .294-.001.455.386l.248.603c.194.471.407.992.445 1.067.056.113.093.244.019.394a7.126 7.126 0 0 0-.032.065c-.056.115-.098.2-.193.31l-.115.14a3.73 3.73 0 0 1-.222.255c-.112.112-.23.234-.098.46.13.224.581.961 1.25 1.558.717.64 1.34.912 1.657 1.05.062.026.112.048.148.066.225.113.356.094.487-.056s.562-.657.711-.882c.15-.225.3-.188.506-.113.206.075 1.31.62 1.534.732l.123.06z" fill="#FDFDFD"/></svg>