<svg width="30" height="30" viewBox="0 0 30 30" fill="none" xmlns="http://www.w3.org/2000/svg"><path fill-rule="evenodd" clip-rule="evenodd" d="M15 0C6.716 0 0 6.716 0 15c0 8.284 6.716 15 15 15 8.284 0 15-6.716 15-15 0-8.284-6.716-15-15-15zm6.251 9.843c.688.19 1.23.746 1.415 1.453C23 12.576 23 15.25 23 15.25s0 2.673-.334 3.954a2.032 2.032 0 0 1-1.415 1.453C20.003 21 15 21 15 21s-5.003 0-6.251-.343a2.032 2.032 0 0 1-1.415-1.453C7 17.923 7 15.25 7 15.25s0-2.673.334-3.954A2.031 2.031 0 0 1 8.75 9.843C9.997 9.5 15 9.5 15 9.5s5.003 0 6.251.343z" fill="#85BA0D"/><path d="M13.5 18v-5l4 2.5-4 2.5z" fill="#85BA0D"/></svg>