<svg width="30" height="32" viewBox="0 0 30 32" fill="none" xmlns="http://www.w3.org/2000/svg"><path fill-rule="evenodd" clip-rule="evenodd" d="M15 .646C6.716.646 0 7.452 0 15.848S6.716 31.05 15 31.05c8.284 0 15-6.806 15-15.202S23.284.646 15 .646zm6.251 9.976a2.05 2.05 0 0 1 1.415 1.472C23 13.393 23 16.102 23 16.102s0 2.709-.334 4.007a2.046 2.046 0 0 1-1.415 1.472c-1.248.348-6.251.348-6.251.348s-5.003 0-6.251-.348a2.046 2.046 0 0 1-1.415-1.472C7 18.811 7 16.102 7 16.102s0-2.71.334-4.008a2.046 2.046 0 0 1 1.415-1.472c1.248-.348 6.251-.348 6.251-.348s5.003 0 6.251.348z" fill="#fff"/><path d="M13.5 18.889v-5.067l4 2.533-4 2.534z" fill="#fff"/></svg>